<svg width="100" height="100" viewBox="0 0 100 100" fill="none" xmlns="http://www.w3.org/2000/svg">
<path fill-rule="evenodd" clip-rule="evenodd" d="M75.0609 7.54055C67.4372 7.54055 63.9903 9.28427 59.8541 13.7855L50.1623 24.4911L40.4705 13.7449C35.9693 9.24371 32.8468 7.5 25.2637 7.5H13.8281C13.8281 7.5 31.468 29.6411 33.9011 32.0742C37.713 36.2105 40.1461 38.2786 45.3367 38.2786H54.6635C59.8541 38.2786 62.6116 36.2105 66.4234 32.0742C68.816 29.6411 86.4964 7.5 86.4964 7.5H75.0609V7.54055Z" fill="#FF3434"/>
<path fill-rule="evenodd" clip-rule="evenodd" d="M68.8564 36.251C63.3414 37.3053 60.2189 38.6435 57.4208 43.1853L54.9877 46.9971L52.9196 51.1739C50.1621 55.6751 50.4865 59.122 52.5547 64.6776C53.609 67.8 63.6252 94.118 63.6252 94.118L69.5052 84.4262C73.317 77.8568 73.317 74.045 71.5733 68.165L67.437 54.3369L81.3057 51.2145C87.51 49.8357 90.6325 47.727 94.4443 41.1983L99.9999 31.1415C99.9999 31.1415 72.3032 35.6427 68.8564 36.3321V36.251Z" fill="#2081F3"/>
<path fill-rule="evenodd" clip-rule="evenodd" d="M47.4047 51.1334L44.9716 46.9566L42.9035 43.1447C40.146 38.6435 37.0235 37.2648 31.468 36.2104C28.0211 35.521 0 31.0198 0 31.0198L5.87996 41.0766C9.65125 47.6459 12.7737 49.7141 18.6942 51.0928L32.8467 54.2153L28.3455 68.0434C26.6423 73.9233 26.9262 77.7352 30.738 84.3045L36.2936 93.9963C36.2936 93.9963 46.6748 67.6784 47.6886 64.5559C49.3917 59.0004 50.1217 55.5535 47.3642 51.0523L47.4047 51.1334Z" fill="#1E67F6"/>
</svg>
